<svg class="prefix__site-header-icon" viewBox="0 0 32 32" xmlns="http://www.w3.org/2000/svg" aria-hidden="true"><g fill="none" fill-rule="evenodd" stroke-width="2"><path stroke="#C5C5C5" d="M11.701 7.726c-3.783-.682-6.888-.032-8.086 2.023-.888 1.525-.576 3.563.66 5.7m2.051 2.74c1.566 1.704 3.64 3.36 6.086 4.758 5.83 3.333 11.881 4.13 14.755 2.19m2.679-1.08c0-.86-.704-1.556-1.571-1.556-.868 0-1.57.696-1.57 1.556 0 .859.702 1.555 1.57 1.555.867 0 1.57-.696 1.57-1.555h0z"/><path stroke="#C5C5C5" d="M26.102 17.7c2.477-2.9 3.454-5.879 2.259-7.93-.874-1.5-2.764-2.251-5.192-2.283m-3.472.374c-2.292.486-4.802 1.444-7.273 2.857-6.001 3.432-9.77 8.41-9.258 11.863m.519 3.031c.868 0 1.57-.696 1.57-1.555 0-.86-.702-1.556-1.57-1.556-.867 0-1.57.696-1.57 1.556 0 .859.703 1.555 1.57 1.555h0z"/><path stroke="#C5C5C5" d="M10.186 25.07c1.295 3.583 3.414 5.918 5.808 5.918 1.735 0 3.326-1.226 4.563-3.265m1.494-3.387c.686-2.172 1.083-4.741 1.083-7.493 0-6.755-2.39-12.404-5.585-13.81m-1.555 1.22c.868 0 1.571-.696 1.571-1.556 0-.859-.703-1.556-1.57-1.556-.868 0-1.572.697-1.572 1.556 0 .86.704 1.556 1.571 1.556z"/><path fill="#C5C5C5" d="M16.298 18.233a1.437 1.437 0 01-1.708-1.09 1.423 1.423 0 011.1-1.691 1.437 1.437 0 011.708 1.09 1.423 1.423 0 01-1.1 1.691z"/></g></svg>