<?xml version="1.0" encoding="UTF-8" standalone="no"?>
<!DOCTYPE svg PUBLIC "-//W3C//DTD SVG 1.1//EN" "http://www.w3.org/Graphics/SVG/1.1/DTD/svg11.dtd">
<svg width="100%" height="100%" viewBox="0 0 256 256" version="1.1" xmlns="http://www.w3.org/2000/svg" xmlns:xlink="http://www.w3.org/1999/xlink" xml:space="preserve" xmlns:serif="http://www.serif.com/" style="fill-rule:evenodd;clip-rule:evenodd;stroke-linejoin:round;stroke-miterlimit:2;">
    <g>
        <path d="M0,0L0,256L256,256L257,0L0,0Z" style="fill:rgb(28,28,39);"/>
        <g>
            <path d="M100.502,71.69C74.497,66.954 53.935,71.911 45.74,86.105C39.625,96.697 41.373,110.74 49.98,125.751C50.447,126.607 51.347,127.141 52.322,127.141C53.785,127.141 54.989,125.938 54.989,124.474C54.989,123.989 54.856,123.513 54.606,123.098C46.854,109.576 45.345,97.457 50.359,88.772C57.167,76.981 75.507,72.559 99.546,76.937C99.691,76.961 99.837,76.973 99.984,76.973C101.447,76.973 102.651,75.769 102.651,74.306C102.651,73.038 101.746,71.936 100.502,71.69ZM63.503,143.997C74.018,155.552 87.679,166.391 103.259,175.385C140.982,197.165 181.142,202.986 200.934,189.491C201.684,188.998 202.137,188.159 202.137,187.262C202.137,185.799 200.933,184.595 199.47,184.595C198.918,184.595 198.379,184.766 197.929,185.085C180.215,197.163 142.067,191.633 105.926,170.767C90.812,162.041 77.583,151.545 67.448,140.407C66.943,139.847 66.223,139.527 65.469,139.527C64.005,139.527 62.802,140.731 62.802,142.194C62.802,142.862 63.052,143.505 63.503,143.997Z" style="fill:rgb(155,236,245);fill-rule:nonzero;"/>
            <path d="M194.62,140.753C211.648,120.637 217.593,100.405 209.415,86.241C203.398,75.818 190.677,70.315 173.77,70.095C172.308,70.097 171.107,71.3 171.107,72.762C171.107,74.198 172.266,75.389 173.701,75.428C188.906,75.626 199.866,80.367 204.797,88.908C211.589,100.673 206.287,118.715 190.549,137.307C190.129,137.792 189.898,138.412 189.898,139.053C189.898,140.516 191.102,141.72 192.565,141.72C193.359,141.72 194.114,141.365 194.62,140.753ZM150.859,72.578C135.463,75.877 119.075,82.327 103.337,91.413C64.395,113.896 38.992,147.049 42.52,171.088C42.697,172.406 43.834,173.4 45.163,173.4C46.626,173.4 47.83,172.196 47.83,170.733C47.83,170.592 47.819,170.452 47.797,170.313C44.664,148.969 68.744,117.544 106.004,96.032C121.271,87.217 137.139,80.972 151.976,77.793C153.221,77.548 154.127,76.446 154.127,75.176C154.127,73.713 152.923,72.509 151.46,72.509C151.258,72.509 151.056,72.532 150.859,72.578Z" style="fill:rgb(155,236,245);fill-rule:nonzero;"/>
            <path d="M87.77,187.753C96.674,212.613 111.239,227.92 127.617,227.92C139.562,227.92 150.613,219.777 159.231,205.442C159.493,205.02 159.632,204.532 159.632,204.035C159.632,202.572 158.429,201.368 156.965,201.368C156.017,201.368 155.137,201.874 154.66,202.694C146.915,215.577 137.402,222.586 127.617,222.586C114.012,222.586 101.021,208.934 92.792,185.956C92.429,184.872 91.407,184.136 90.263,184.136C88.8,184.136 87.596,185.34 87.596,186.803C87.596,187.128 87.655,187.45 87.771,187.753L87.77,187.753ZM169.092,182.89C173.702,168.162 176.177,151.172 176.177,133.467C176.177,89.288 160.714,51.204 138.69,41.425C138.364,41.288 138.013,41.218 137.66,41.218C136.197,41.218 134.993,42.422 134.993,43.885C134.993,44.917 135.592,45.86 136.526,46.299C156.169,55.022 170.843,91.165 170.843,133.467C170.843,150.644 168.446,167.097 164.003,181.297C163.915,181.566 163.87,181.847 163.87,182.13C163.87,183.593 165.074,184.797 166.537,184.797C167.713,184.797 168.758,184.018 169.093,182.89L169.092,182.89ZM219.316,180.278C219.316,173.229 213.602,167.515 206.553,167.515C199.504,167.515 193.79,173.229 193.79,180.278C193.79,187.327 199.504,193.041 206.553,193.041C213.602,193.041 219.316,187.327 219.316,180.278ZM213.983,180.278C213.983,184.354 210.629,187.708 206.553,187.708C202.477,187.708 199.123,184.354 199.123,180.278C199.123,176.202 202.477,172.848 206.553,172.848C210.629,172.848 213.983,176.202 213.983,180.278ZM48.497,193.041C55.547,193.041 61.261,187.327 61.261,180.278C61.261,173.229 55.546,167.515 48.497,167.515C41.449,167.515 35.734,173.229 35.734,180.278C35.734,187.327 41.449,193.041 48.497,193.041ZM48.497,187.708C44.421,187.708 41.067,184.354 41.067,180.278C41.067,176.202 44.421,172.848 48.497,172.848C52.573,172.848 55.927,176.202 55.927,180.278C55.927,184.354 52.573,187.708 48.497,187.708Z" style="fill:rgb(155,236,245);fill-rule:nonzero;"/>
            <path d="M127.617,54.444C134.666,54.444 140.38,48.73 140.38,41.681C140.38,34.632 134.666,28.918 127.617,28.918C120.568,28.918 114.854,34.632 114.854,41.681C114.854,48.73 120.568,54.444 127.617,54.444ZM127.617,49.111C123.541,49.111 120.187,45.757 120.187,41.681C120.187,37.605 123.541,34.251 127.617,34.251C131.693,34.251 135.047,37.605 135.047,41.681C135.047,45.757 131.693,49.111 127.617,49.111ZM129.566,142.493C124.581,143.57 119.67,140.402 118.591,135.417C117.522,130.466 120.716,125.512 125.667,124.441C130.652,123.364 135.563,126.532 136.643,131.517C137.72,136.502 134.552,141.414 129.566,142.493Z" style="fill:rgb(155,236,245);fill-rule:nonzero;"/>
        </g>
    </g>
</svg>
